<svg width="17" height="24" viewBox="0 0 17 24" fill="#D7D9DF" xmlns="http://www.w3.org/2000/svg">
<path fill-rule="evenodd" clip-rule="evenodd" d="M5.41471 2.96022C5.37958 2.96065 5.31417 2.96778 5.2074 2.99946L5.19888 3.00199C4.40695 3.22919 3.82245 3.59014 3.3688 4.2301L3.36274 4.23866L3.35649 4.24708C2.82041 4.97028 2.59363 5.90154 2.66473 6.90905L2.66485 6.91065C2.7073 7.52607 2.79336 8.19688 2.97041 8.84406C4.19534 13.0591 6.22487 16.7842 9.03545 19.9872C9.61239 20.6373 10.3535 21.2117 11.1134 21.6571L11.1186 21.6601C12.1521 22.2742 13.6787 22.0117 14.6502 20.953L14.6576 20.9449C14.9012 20.6853 14.8983 20.5713 14.8973 20.5423C14.895 20.478 14.8547 20.2608 14.4835 19.8213C14.2065 19.5042 13.9127 19.2055 13.5942 18.8822L13.5848 18.8727C13.2773 18.5606 12.9462 18.2245 12.6273 17.8598C12.2384 17.4434 11.9527 17.2616 11.7314 17.1957C11.5495 17.1416 11.3011 17.132 10.8881 17.3389C10.5358 17.5203 10.1491 17.6484 9.73352 17.6436C9.29597 17.6387 8.92178 17.4878 8.61059 17.268C8.31915 17.0621 8.08211 16.7955 7.88509 16.5442C7.69353 16.2999 7.49802 16.0146 7.30414 15.7316L7.27866 15.6944L7.27428 15.6878C6.53483 14.572 6.10785 13.6867 5.846 13.1437C5.81261 13.0745 5.7819 13.0108 5.75357 12.9529C5.35629 12.1726 4.98159 11.3821 4.9466 10.5988C4.90605 9.69086 5.30973 8.97364 5.96688 8.32288C6.08189 8.20046 6.22599 7.98185 6.33473 7.72184C6.44549 7.45703 6.4739 7.25921 6.46953 7.16839C6.35844 6.27574 6.12859 5.45731 5.87944 4.57015C5.75965 4.14358 5.63539 3.70112 5.51772 3.22688C5.47766 3.07397 5.43769 2.99587 5.41471 2.96022ZM6.41538 1.22426C6.99804 1.56996 7.29704 2.16039 7.44836 2.74377L7.45113 2.75441C7.53761 3.10333 7.64237 3.47781 7.7521 3.86983C8.02245 4.83565 8.32261 5.90798 8.45181 6.96709L8.4539 6.98422L8.4554 7.0014C8.50233 7.53767 8.35459 8.08408 8.17423 8.51532C7.98932 8.95742 7.71897 9.40048 7.40027 9.73203L7.39086 9.74181L7.38119 9.75134C6.95519 10.1707 6.93214 10.3775 6.93891 10.5291C6.95138 10.8083 7.10146 11.2181 7.53027 12.06L7.53382 12.0669L7.53727 12.074C7.56928 12.1393 7.603 12.2091 7.63887 12.2834C7.8977 12.8194 8.26904 13.5884 8.92603 14.5807C9.13677 14.8882 9.29783 15.1228 9.44632 15.3122C9.59733 15.5048 9.69134 15.5921 9.74566 15.6305C9.74836 15.6324 9.75076 15.6341 9.75288 15.6355C9.78267 15.6296 9.85067 15.6108 9.96753 15.5504L9.97727 15.5453C10.7425 15.1604 11.5137 15.045 12.2795 15.2729C13.0044 15.4887 13.5915 15.9747 14.0882 16.5094L14.0991 16.5211L14.1096 16.5331C14.388 16.8523 14.6834 17.1526 15.0038 17.4778L15.0131 17.4873C15.3243 17.8031 15.6596 18.1434 15.9819 18.513L15.9866 18.5184L15.9913 18.524C16.4886 19.1108 16.8647 19.7619 16.8904 20.4917C16.9172 21.2547 16.5556 21.858 16.1184 22.3252C14.632 23.9417 12.1041 24.5629 10.1198 23.386C9.21432 22.8549 8.29621 22.1518 7.55137 21.3119L7.54791 21.3079C4.53277 17.8724 2.36003 13.8779 1.05436 9.38095L1.05231 9.37387L1.05035 9.36675C0.82403 8.54272 0.723319 7.72513 0.675322 7.02928C0.577895 5.64445 0.880997 4.21954 1.74702 3.04636C2.51168 1.97206 3.51178 1.39542 4.62982 1.07396C5.17927 0.911782 5.82642 0.874832 6.41538 1.22426Z"/>
</svg>
